<?xml version="1.0" standalone="no"?>
<!DOCTYPE svg PUBLIC "-//W3C//DTD SVG 20010904//EN"
 "http://www.w3.org/TR/2001/REC-SVG-20010904/DTD/svg10.dtd">
<svg version="1.0" xmlns="http://www.w3.org/2000/svg"
 width="168.000000pt" height="189.000000pt" viewBox="0 0 168.000000 189.000000"
 preserveAspectRatio="xMidYMid meet">
<metadata>
Created by potrace 1.16, written by Peter Selinger 2001-2019
</metadata>
<g transform="translate(0.000000,189.000000) scale(0.100000,-0.100000)"
fill="#000000" stroke="none">
<path d="M973 1629 c-67 -33 -142 -134 -143 -191 0 -15 -9 -18 -45 -18 -76 0
-158 -48 -191 -111 -13 -26 -13 -32 0 -57 20 -39 78 -82 134 -98 61 -19 91
-18 135 5 l38 19 8 -21 c5 -12 16 -39 25 -61 9 -21 16 -66 16 -99 0 -58 -1
-60 -19 -43 -10 9 -35 19 -55 23 -46 7 -80 -15 -96 -61 -7 -22 -24 -43 -46
-56 -19 -12 -40 -29 -47 -39 -6 -9 -30 -22 -53 -29 -22 -6 -51 -23 -64 -37
-13 -14 -32 -25 -41 -25 -10 0 -34 -14 -53 -30 -71 -63 -62 -182 17 -230 30
-19 52 -20 362 -20 310 0 332 1 362 20 33 20 59 59 63 95 7 63 -1 88 -39 126
-21 22 -47 39 -58 39 -11 0 -30 11 -43 25 -29 30 -83 49 -121 41 -21 -4 -32 0
-42 15 -13 18 -12 26 4 70 26 67 25 163 -2 237 -21 58 -32 95 -43 145 -6 24
-4 27 19 27 49 0 82 27 115 94 30 59 32 71 29 144 -6 120 -38 145 -126 101z
m-123 -287 l22 -18 -41 -12 c-22 -7 -41 -19 -41 -26 0 -22 28 -39 55 -34 30 6
32 -5 5 -32 -34 -34 -124 -18 -177 32 -30 28 -29 42 5 64 75 49 133 58 172 26z
m83 -564 c31 -42 17 -71 -61 -123 -37 -25 -76 -45 -88 -45 -32 0 -56 33 -52
72 3 29 7 34 43 43 25 6 53 24 75 47 40 43 55 44 83 6z"/>
<path d="M886 294 c-31 -32 -33 -53 -5 -88 28 -36 80 -36 108 0 28 36 26 60
-5 89 -35 32 -65 32 -98 -1z"/>
</g>
</svg>
